{
    "asset" : {
        "generator" : "Khronos glTF Blender I/O v1.8.19",
        "version" : "2.0"
    },
    "scene" : 0,
    "scenes" : [
        {
            "name" : "Scene",
            "nodes" : [
                4
            ]
        }
    ],
    "nodes" : [
        {
            "mesh" : 0,
            "name" : "Cube.001",
            "scale" : [
                0.12999999523162842,
                0.21000003814697266,
                8.479999542236328
            ],
            "translation" : [
                1.9990320205688477,
                -2.8295559883117676,
                -1.0381441116333008
            ]
        },
        {
            "mesh" : 0,
            "name" : "Cube.002",
            "scale" : [
                0.27000004053115845,
                8.149999618530273,
                0.25
            ],
            "translation" : [
                1.196272611618042,
                0.8252556324005127,
                -3.7256577014923096
            ]
        },
        {
            "mesh" : 0,
            "name" : "Cube.003",
            "scale" : [
                0.20000004768371582,
                3.2200000286102295,
                0.2200000286102295
            ],
            "translation" : [
                -2.5719985961914062,
                2.42330002784729,
                2.8361332416534424
            ]
        },
        {
            "mesh" : 0,
            "name" : "Cube.004",
            "scale" : [
                2.3299999237060547,
                0.12000000476837158,
                2.25
            ],
            "translation" : [
                -0.5065736770629883,
                -2.6116321086883545,
                2.3643717765808105
            ]
        },
        {
            "children" : [
                0,
                1,
                2,
                3
            ],
            "mesh" : 0,
            "name" : "Cube"
        }
    ],
    "materials" : [
        {
            "doubleSided" : true,
            "name" : "Material.LightGreen",
            "pbrMetallicRoughness" : {
                "baseColorTexture" : {
                    "index" : 0
                },
                "metallicFactor" : 0,
                "roughnessFactor" : 0.5
            }
        }
    ],
    "meshes" : [
        {
            "name" : "Cube.001",
            "primitives" : [
                {
                    "attributes" : {
                        "POSITION" : 0,
                        "NORMAL" : 1,
                        "TEXCOORD_0" : 2
                    },
                    "indices" : 3,
                    "material" : 0
                }
            ]
        }
    ],
    "textures" : [
        {
            "sampler" : 0,
            "source" : 0
        }
    ],
    "images" : [
        {
            "mimeType" : "image/png",
            "name" : "T_LightGreen_D",
            "uri" : "T_LightGreen_D.png"
        }
    ],
    "accessors" : [
        {
            "bufferView" : 0,
            "componentType" : 5126,
            "count" : 24,
            "max" : [
                1,
                1,
                1
            ],
            "min" : [
                -1,
                -1,
                -1
            ],
            "type" : "VEC3"
        },
        {
            "bufferView" : 1,
            "componentType" : 5126,
            "count" : 24,
            "type" : "VEC3"
        },
        {
            "bufferView" : 2,
            "componentType" : 5126,
            "count" : 24,
            "type" : "VEC2"
        },
        {
            "bufferView" : 3,
            "componentType" : 5123,
            "count" : 36,
            "type" : "SCALAR"
        }
    ],
    "bufferViews" : [
        {
            "buffer" : 0,
            "byteLength" : 288,
            "byteOffset" : 0
        },
        {
            "buffer" : 0,
            "byteLength" : 288,
            "byteOffset" : 288
        },
        {
            "buffer" : 0,
            "byteLength" : 192,
            "byteOffset" : 576
        },
        {
            "buffer" : 0,
            "byteLength" : 72,
            "byteOffset" : 768
        }
    ],
    "samplers" : [
        {
            "magFilter" : 9729,
            "minFilter" : 9987
        }
    ],
    "buffers" : [
        {
            "byteLength" : 840,
            "uri" : "SM_Deccer_Cubes_Textured_SharedVertexData.bin"
        }
    ]
}
