{"buffers":[{"uri":"SM_Skull_Optimized.bin","byteLength":1750768}],"asset":{"version":"2.0","generator":"gltfpack 0.18"},"bufferViews":[{"buffer":0,"byteOffset":0,"byteLength":488604,"byteStride":12,"target":34962},{"buffer":0,"byteOffset":488604,"byteLength":488604,"byteStride":12,"target":34962},{"buffer":0,"byteOffset":977208,"byteLength":325736,"byteStride":8,"target":34962},{"buffer":0,"byteOffset":1302944,"byteLength":447822,"target":34963}],"accessors":[{"bufferView":0,"byteOffset":0,"componentType":5126,"count":40717,"type":"VEC3","min":[-1.87943721,-1.68290055,-1.07618332],"max":[1.87943721,1.0121218,1.13594341]},{"bufferView":1,"byteOffset":0,"componentType":5126,"count":40717,"type":"VEC3"},{"bufferView":2,"byteOffset":0,"componentType":5126,"count":40717,"type":"VEC2"},{"bufferView":3,"byteOffset":0,"componentType":5123,"count":223911,"type":"SCALAR"}],"samplers":[{"magFilter":9729,"minFilter":9987}],"images":[{"uri":"TD_Checker_Normal_OpenGL.png"},{"uri":"TD_Checker_Base_Color.png"},{"uri":"TD_Checker_Roughness.png"}],"textures":[{"sampler":0,"source":0},{"sampler":0,"source":1},{"sampler":0,"source":2}],"materials":[{"name":"TD_Checker","pbrMetallicRoughness":{"baseColorTexture":{"index":1},"metallicFactor":0,"metallicRoughnessTexture":{"index":2}},"normalTexture":{"index":0},"doubleSided":true}],"meshes":[{"primitives":[{"attributes":{"POSITION":0,"NORMAL":1,"TEXCOORD_0":2},"indices":3,"material":0}]}],"nodes":[{"mesh":0}],"scenes":[{"name":"Scene","nodes":[0]}],"scene":0}