{
    "asset" : {
        "generator" : "Khronos glTF Blender I/O v1.8.19",
        "version" : "2.0"
    },
    "scene" : 0,
    "scenes" : [
        {
            "name" : "Scene",
            "nodes" : [
                0,
                1,
                2,
                3
            ]
        }
    ],
    "nodes" : [
        {
            "mesh" : 0,
            "name" : "Retopo_ytyyty",
            "rotation" : [
                0.7071067094802856,
                0,
                0,
                0.7071068286895752
            ],
            "scale" : [
                0.009999999776482582,
                0.009999999776482582,
                0.009999999776482582
            ]
        },
        {
            "mesh" : 1,
            "name" : "Retopo_BezierCurve.001",
            "rotation" : [
                0.7071067094802856,
                0,
                0,
                0.7071068286895752
            ],
            "scale" : [
                0.009999999776482582,
                0.009999999776482582,
                0.009999999776482582
            ]
        },
        {
            "mesh" : 2,
            "name" : "Retopo_Sphere",
            "rotation" : [
                0.7071067094802856,
                0,
                0,
                0.7071068286895752
            ],
            "scale" : [
                0.009999999776482582,
                0.009999999776482582,
                0.009999999776482582
            ]
        },
        {
            "mesh" : 3,
            "name" : "Retopo_Cylinder.001",
            "rotation" : [
                0.7071067094802856,
                0,
                0,
                0.7071068286895752
            ],
            "scale" : [
                0.009999999776482582,
                0.009999999776482582,
                0.009999999776482582
            ],
            "translation" : [
                0.793535053730011,
                0.6545742154121399,
                0.3816547691822052
            ]
        }
    ],
    "materials" : [
        {
            "doubleSided" : true,
            "name" : "TD_Checker",
            "normalTexture" : {
                "index" : 0
            },
            "pbrMetallicRoughness" : {
                "baseColorTexture" : {
                    "index" : 1
                },
                "metallicFactor" : 0,
                "metallicRoughnessTexture" : {
                    "index" : 2
                }
            }
        }
    ],
    "meshes" : [
        {
            "name" : "mesh",
            "primitives" : [
                {
                    "attributes" : {
                        "POSITION" : 0,
                        "NORMAL" : 1,
                        "TEXCOORD_0" : 2
                    },
                    "indices" : 3,
                    "material" : 0
                }
            ]
        },
        {
            "name" : "mesh.001",
            "primitives" : [
                {
                    "attributes" : {
                        "POSITION" : 4,
                        "NORMAL" : 5,
                        "TEXCOORD_0" : 6
                    },
                    "indices" : 7,
                    "material" : 0
                }
            ]
        },
        {
            "name" : "mesh.002",
            "primitives" : [
                {
                    "attributes" : {
                        "POSITION" : 8,
                        "NORMAL" : 9,
                        "TEXCOORD_0" : 10
                    },
                    "indices" : 11,
                    "material" : 0
                }
            ]
        },
        {
            "name" : "mesh.003",
            "primitives" : [
                {
                    "attributes" : {
                        "POSITION" : 12,
                        "NORMAL" : 13,
                        "TEXCOORD_0" : 14
                    },
                    "indices" : 15,
                    "material" : 0
                }
            ]
        }
    ],
    "textures" : [
        {
            "sampler" : 0,
            "source" : 0
        },
        {
            "sampler" : 0,
            "source" : 1
        },
        {
            "sampler" : 0,
            "source" : 2
        }
    ],
    "images" : [
        {
            "mimeType" : "image/png",
            "name" : "TD_Checker_Normal_OpenGL",
            "uri" : "TD_Checker_Normal_OpenGL.png"
        },
        {
            "mimeType" : "image/png",
            "name" : "TD_Checker_Base_Color",
            "uri" : "TD_Checker_Base_Color.png"
        },
        {
            "mimeType" : "image/png",
            "name" : "TD_Checker_Roughness",
            "uri" : "TD_Checker_Roughness.png"
        }
    ],
    "accessors" : [
        {
            "bufferView" : 0,
            "componentType" : 5126,
            "count" : 13717,
            "max" : [
                73.64169311523438,
                104.13182067871094,
                168.2900848388672
            ],
            "min" : [
                -73.64169311523438,
                -1.3150337934494019,
                48.313392639160156
            ],
            "type" : "VEC3"
        },
        {
            "bufferView" : 1,
            "componentType" : 5126,
            "count" : 13717,
            "type" : "VEC3"
        },
        {
            "bufferView" : 2,
            "componentType" : 5126,
            "count" : 13717,
            "type" : "VEC2"
        },
        {
            "bufferView" : 3,
            "componentType" : 5123,
            "count" : 79008,
            "type" : "SCALAR"
        },
        {
            "bufferView" : 4,
            "componentType" : 5126,
            "count" : 868,
            "max" : [
                27.079301834106445,
                101.6551742553711,
                122.75471496582031
            ],
            "min" : [
                -27.10413360595703,
                86.52381896972656,
                97.84105682373047
            ],
            "type" : "VEC3"
        },
        {
            "bufferView" : 5,
            "componentType" : 5126,
            "count" : 868,
            "type" : "VEC3"
        },
        {
            "bufferView" : 6,
            "componentType" : 5126,
            "count" : 868,
            "type" : "VEC2"
        },
        {
            "bufferView" : 7,
            "componentType" : 5123,
            "count" : 4608,
            "type" : "SCALAR"
        },
        {
            "bufferView" : 8,
            "componentType" : 5126,
            "count" : 30246,
            "max" : [
                187.9437255859375,
                113.59434509277344,
                109.01290130615234
            ],
            "min" : [
                -187.9437255859375,
                -107.61834716796875,
                -94.19921875
            ],
            "type" : "VEC3"
        },
        {
            "bufferView" : 9,
            "componentType" : 5126,
            "count" : 30246,
            "type" : "VEC3"
        },
        {
            "bufferView" : 10,
            "componentType" : 5126,
            "count" : 30246,
            "type" : "VEC2"
        },
        {
            "bufferView" : 11,
            "componentType" : 5123,
            "count" : 173058,
            "type" : "SCALAR"
        },
        {
            "bufferView" : 12,
            "componentType" : 5126,
            "count" : 34652,
            "max" : [
                100.94095611572266,
                17.129789352416992,
                124.04216766357422
            ],
            "min" : [
                -259.6479797363281,
                -138.70501708984375,
                -35.7547721862793
            ],
            "type" : "VEC3"
        },
        {
            "bufferView" : 13,
            "componentType" : 5126,
            "count" : 34652,
            "type" : "VEC3"
        },
        {
            "bufferView" : 14,
            "componentType" : 5126,
            "count" : 34652,
            "type" : "VEC2"
        },
        {
            "bufferView" : 15,
            "componentType" : 5123,
            "count" : 191154,
            "type" : "SCALAR"
        }
    ],
    "bufferViews" : [
        {
            "buffer" : 0,
            "byteLength" : 164604,
            "byteOffset" : 0
        },
        {
            "buffer" : 0,
            "byteLength" : 164604,
            "byteOffset" : 164604
        },
        {
            "buffer" : 0,
            "byteLength" : 109736,
            "byteOffset" : 329208
        },
        {
            "buffer" : 0,
            "byteLength" : 158016,
            "byteOffset" : 438944
        },
        {
            "buffer" : 0,
            "byteLength" : 10416,
            "byteOffset" : 596960
        },
        {
            "buffer" : 0,
            "byteLength" : 10416,
            "byteOffset" : 607376
        },
        {
            "buffer" : 0,
            "byteLength" : 6944,
            "byteOffset" : 617792
        },
        {
            "buffer" : 0,
            "byteLength" : 9216,
            "byteOffset" : 624736
        },
        {
            "buffer" : 0,
            "byteLength" : 362952,
            "byteOffset" : 633952
        },
        {
            "buffer" : 0,
            "byteLength" : 362952,
            "byteOffset" : 996904
        },
        {
            "buffer" : 0,
            "byteLength" : 241968,
            "byteOffset" : 1359856
        },
        {
            "buffer" : 0,
            "byteLength" : 346116,
            "byteOffset" : 1601824
        },
        {
            "buffer" : 0,
            "byteLength" : 415824,
            "byteOffset" : 1947940
        },
        {
            "buffer" : 0,
            "byteLength" : 415824,
            "byteOffset" : 2363764
        },
        {
            "buffer" : 0,
            "byteLength" : 277216,
            "byteOffset" : 2779588
        },
        {
            "buffer" : 0,
            "byteLength" : 382308,
            "byteOffset" : 3056804
        }
    ],
    "samplers" : [
        {
            "magFilter" : 9729,
            "minFilter" : 9987
        }
    ],
    "buffers" : [
        {
            "byteLength" : 3439112,
            "uri" : "SM_Skull.bin"
        }
    ]
}
