{"buffers":[{"uri":"SM_Skull_Optimized_point1.bin","byteLength":376172}],"asset":{"version":"2.0","generator":"gltfpack 0.18"},"bufferViews":[{"buffer":0,"byteOffset":0,"byteLength":107508,"byteStride":12,"target":34962},{"buffer":0,"byteOffset":107508,"byteLength":107508,"byteStride":12,"target":34962},{"buffer":0,"byteOffset":215016,"byteLength":71672,"byteStride":8,"target":34962},{"buffer":0,"byteOffset":286688,"byteLength":89484,"target":34963}],"accessors":[{"bufferView":0,"byteOffset":0,"componentType":5126,"count":8959,"type":"VEC3","min":[-1.87943721,-1.67896724,-1.07475352],"max":[1.87943721,1.0121218,1.13594341]},{"bufferView":1,"byteOffset":0,"componentType":5126,"count":8959,"type":"VEC3"},{"bufferView":2,"byteOffset":0,"componentType":5126,"count":8959,"type":"VEC2"},{"bufferView":3,"byteOffset":0,"componentType":5123,"count":44742,"type":"SCALAR"}],"samplers":[{"magFilter":9729,"minFilter":9987}],"images":[{"uri":"TD_Checker_Normal_OpenGL.png"},{"uri":"TD_Checker_Base_Color.png"},{"uri":"TD_Checker_Roughness.png"}],"textures":[{"sampler":0,"source":0},{"sampler":0,"source":1},{"sampler":0,"source":2}],"materials":[{"name":"TD_Checker","pbrMetallicRoughness":{"baseColorTexture":{"index":1},"metallicFactor":0,"metallicRoughnessTexture":{"index":2}},"normalTexture":{"index":0},"doubleSided":true}],"meshes":[{"primitives":[{"attributes":{"POSITION":0,"NORMAL":1,"TEXCOORD_0":2},"indices":3,"material":0}]}],"nodes":[{"mesh":0}],"scenes":[{"name":"Scene","nodes":[0]}],"scene":0}