{
	"asset":{
		"generator":"Khronos glTF Blender I/O v4.1.63",
		"version":"2.0"
	},
	"scene":0,
	"scenes":[
		{
			"name":"Scene",
			"nodes":[
				0
			]
		}
	],
	"nodes":[
		{
			"mesh":0,
			"name":"Cube.001"
		}
	],
	"meshes":[
		{
			"name":"Cube",
			"primitives":[
				{
					"attributes":{
						"POSITION":0,
						"NORMAL":1,
						"TEXCOORD_0":2,
						"TANGENT":3
					},
					"indices":4
				}
			]
		}
	],
	"accessors":[
		{
			"bufferView":0,
			"componentType":5126,
			"count":24000,
			"max":[
				73,
				73,
				1
			],
			"min":[
				-1,
				-1,
				-73
			],
			"type":"VEC3"
		},
		{
			"bufferView":1,
			"componentType":5126,
			"count":24000,
			"type":"VEC3"
		},
		{
			"bufferView":2,
			"componentType":5126,
			"count":24000,
			"type":"VEC2"
		},
		{
			"bufferView":3,
			"componentType":5126,
			"count":24000,
			"type":"VEC4"
		},
		{
			"bufferView":4,
			"componentType":5123,
			"count":36000,
			"type":"SCALAR"
		}
	],
	"bufferViews":[
		{
			"buffer":0,
			"byteLength":288000,
			"byteOffset":0,
			"target":34962
		},
		{
			"buffer":0,
			"byteLength":288000,
			"byteOffset":288000,
			"target":34962
		},
		{
			"buffer":0,
			"byteLength":192000,
			"byteOffset":576000,
			"target":34962
		},
		{
			"buffer":0,
			"byteLength":384000,
			"byteOffset":768000,
			"target":34962
		},
		{
			"buffer":0,
			"byteLength":72000,
			"byteOffset":1152000,
			"target":34963
		}
	],
	"buffers":[
		{
			"byteLength":1224000,
			"uri":"SM_Cubes_10by10by10_i.bin"
		}
	]
}
