{
  "accessors": [
    {
      "bufferView": 2,
      "componentType": 5126,
      "count": 12060,
      "max": [
        14.051607131958008,
        11.932819366455078,
        -0.1482210010290146
      ],
      "min": [
        -17.47979736328125,
        -11.54714584350586,
        -0.14822599291801453
      ],
      "type": "VEC3"
    },
    {
      "bufferView": 2,
      "byteOffset": 144720,
      "componentType": 5126,
      "count": 12060,
      "max": [
        0.024299947544932365,
        0.024899549782276154,
        1.0
      ],
      "min": [
        -0.02739977464079857,
        -0.022099021822214127,
        -1.0
      ],
      "type": "VEC3"
    },
    {
      "bufferView": 1,
      "componentType": 5126,
      "count": 12060,
      "max": [
        0.8408889770507813,
        0.6972659826278687
      ],
      "min": [
        0.6769359707832336,
        0.550320029258728
      ],
      "type": "VEC2"
    },
    {
      "bufferView": 0,
      "componentType": 5125,
      "count": 17172,
      "type": "SCALAR"
    },
    {
      "bufferView": 2,
      "byteOffset": 289440,
      "componentType": 5126,
      "count": 12119,
      "max": [
        14.051607131958008,
        11.932819366455078,
        2.4922308921813965
      ],
      "min": [
        -17.47979736328125,
        -11.54714584350586,
        -0.14822599291801453
      ],
      "type": "VEC3"
    },
    {
      "bufferView": 2,
      "byteOffset": 434868,
      "componentType": 5126,
      "count": 12119,
      "max": [
        0.999994158744812,
        0.999998152256012,
        0.9980444312095642
      ],
      "min": [
        -0.9999930262565613,
        -0.999998152256012,
        -0.45934343338012695
      ],
      "type": "VEC3"
    },
    {
      "bufferView": 1,
      "byteOffset": 96480,
      "componentType": 5126,
      "count": 12119,
      "max": [
        0.9978209733963013,
        0.9737110137939453
      ],
      "min": [
        0.011858999729156494,
        0.01949400082230568
      ],
      "type": "VEC2"
    },
    {
      "bufferView": 0,
      "byteOffset": 68688,
      "componentType": 5125,
      "count": 25302,
      "type": "SCALAR"
    },
    {
      "bufferView": 2,
      "byteOffset": 580296,
      "componentType": 5126,
      "count": 65532,
      "max": [
        -5.397179126739502,
        3.5802299976348877,
        4.484001159667969
      ],
      "min": [
        -17.476110458374023,
        -10.068254470825195,
        0.26793399453163147
      ],
      "type": "VEC3"
    },
    {
      "bufferView": 2,
      "byteOffset": 1366680,
      "componentType": 5126,
      "count": 65532,
      "max": [
        0.9995201230049133,
        0.9996231198310852,
        0.999998927116394
      ],
      "min": [
        -0.9999929666519165,
        -0.9999915361404419,
        -0.9994421005249023
      ],
      "type": "VEC3"
    },
    {
      "bufferView": 3,
      "componentType": 5126,
      "count": 65532,
      "max": [
        0.9997851848602295,
        0.9999894499778748,
        0.9999343156814575,
        1.0
      ],
      "min": [
        -0.9998248815536499,
        -0.9999979734420776,
        -0.9999339580535889,
        -1.0
      ],
      "type": "VEC4"
    },
    {
      "bufferView": 1,
      "byteOffset": 193432,
      "componentType": 5126,
      "count": 65532,
      "max": [
        0.9998700022697449,
        0.9974780082702637
      ],
      "min": [
        0.005129000172019005,
        0.00019500000053085387
      ],
      "type": "VEC2"
    },
    {
      "bufferView": 0,
      "byteOffset": 169896,
      "componentType": 5125,
      "count": 352332,
      "type": "SCALAR"
    },
    {
      "bufferView": 2,
      "byteOffset": 2153064,
      "componentType": 5126,
      "count": 65532,
      "max": [
        1.7020820379257202,
        2.253192901611328,
        4.60748815536499
      ],
      "min": [
        -13.719391822814941,
        -10.091541290283203,
        0.44806399941444397
      ],
      "type": "VEC3"
    },
    {
      "bufferView": 2,
      "byteOffset": 2939448,
      "componentType": 5126,
      "count": 65532,
      "max": [
        0.9999818801879883,
        0.9999690055847168,
        0.9999998807907104
      ],
      "min": [
        -0.999941349029541,
        -0.9999911785125732,
        -0.9980716705322266
      ],
      "type": "VEC3"
    },
    {
      "bufferView": 3,
      "byteOffset": 1048512,
      "componentType": 5126,
      "count": 65532,
      "max": [
        0.9999746680259705,
        0.999982476234436,
        0.9999070167541504,
        1.0
      ],
      "min": [
        -0.9999523758888245,
        -0.9999979734420776,
        -0.9998907446861267,
        -1.0
      ],
      "type": "VEC4"
    },
    {
      "bufferView": 1,
      "byteOffset": 717688,
      "componentType": 5126,
      "count": 65532,
      "max": [
        0.9999359846115112,
        0.997842013835907
      ],
      "min": [
        0.00010099999781232327,
        0.0001230000052601099
      ],
      "type": "VEC2"
    },
    {
      "bufferView": 0,
      "byteOffset": 1579224,
      "componentType": 5125,
      "count": 350265,
      "type": "SCALAR"
    },
    {
      "bufferView": 2,
      "byteOffset": 3725832,
      "componentType": 5126,
      "count": 65532,
      "max": [
        8.559754371643066,
        9.293841361999512,
        3.1857759952545166
      ],
      "min": [
        -11.882747650146484,
        -11.544940948486328,
        0.3135890066623688
      ],
      "type": "VEC3"
    },
    {
      "bufferView": 2,
      "byteOffset": 4512216,
      "componentType": 5126,
      "count": 65532,
      "max": [
        0.9999244213104248,
        0.9998732805252075,
        0.9999995231628418
      ],
      "min": [
        -0.9999963045120239,
        -0.9999319314956665,
        -0.9357903003692627
      ],
      "type": "VEC3"
    },
    {
      "bufferView": 3,
      "byteOffset": 2097024,
      "componentType": 5126,
      "count": 65532,
      "max": [
        0.999969482421875,
        0.9999910593032837,
        0.9999775290489197,
        1.0
      ],
      "min": [
        -0.9999864101409912,
        -0.9999841451644897,
        -0.9999921321868896,
        -1.0
      ],
      "type": "VEC4"
    },
    {
      "bufferView": 1,
      "byteOffset": 1241944,
      "componentType": 5126,
      "count": 65532,
      "max": [
        0.9821529984474182,
        0.9846950173377991
      ],
      "min": [
        0.004556000232696533,
        0.0020810000132769346
      ],
      "type": "VEC2"
    },
    {
      "bufferView": 0,
      "byteOffset": 2980284,
      "componentType": 5125,
      "count": 352899,
      "type": "SCALAR"
    },
    {
      "bufferView": 2,
      "byteOffset": 5298600,
      "componentType": 5126,
      "count": 65532,
      "max": [
        4.995985984802246,
        10.864962577819824,
        4.123641014099121
      ],
      "min": [
        -11.137237548828125,
        -4.144567012786865,
        0.41669800877571106
      ],
      "type": "VEC3"
    },
    {
      "bufferView": 2,
      "byteOffset": 6084984,
      "componentType": 5126,
      "count": 65532,
      "max": [
        0.9998648166656494,
        0.9999682903289795,
        0.9999940395355225
      ],
      "min": [
        -0.9998059868812561,
        -0.9996067881584167,
        -0.9996570944786072
      ],
      "type": "VEC3"
    },
    {
      "bufferView": 3,
      "byteOffset": 3145536,
      "componentType": 5126,
      "count": 65532,
      "max": [
        0.9999899864196777,
        0.999899685382843,
        0.999966561794281,
        1.0
      ],
      "min": [
        -0.9999659657478333,
        -0.9999845623970032,
        -0.999808132648468,
        -1.0
      ],
      "type": "VEC4"
    },
    {
      "bufferView": 1,
      "byteOffset": 1766200,
      "componentType": 5126,
      "count": 65532,
      "max": [
        0.9999930262565613,
        0.9978349804878235
      ],
      "min": [
        0.00015300000086426735,
        2.9000000722589903e-05
      ],
      "type": "VEC2"
    },
    {
      "bufferView": 0,
      "byteOffset": 4391880,
      "componentType": 5125,
      "count": 352356,
      "type": "SCALAR"
    },
    {
      "bufferView": 2,
      "byteOffset": 6871368,
      "componentType": 5126,
      "count": 65532,
      "max": [
        10.334585189819336,
        10.705492973327637,
        4.320068836212158
      ],
      "min": [
        -5.987176895141602,
        -4.682561874389648,
        1.221235990524292
      ],
      "type": "VEC3"
    },
    {
      "bufferView": 2,
      "byteOffset": 7657752,
      "componentType": 5126,
      "count": 65532,
      "max": [
        0.9999581575393677,
        0.9998995065689087,
        0.9999998807907104
      ],
      "min": [
        -0.9999256134033203,
        -0.9999666213989258,
        -0.8010190725326538
      ],
      "type": "VEC3"
    },
    {
      "bufferView": 3,
      "byteOffset": 4194048,
      "componentType": 5126,
      "count": 65532,
      "max": [
        0.9999943375587463,
        0.9990400671958923,
        0.9977925419807434,
        1.0
      ],
      "min": [
        -0.9999988079071045,
        -0.9999529719352722,
        -0.9967023134231567,
        1.0
      ],
      "type": "VEC4"
    },
    {
      "bufferView": 1,
      "byteOffset": 2290456,
      "componentType": 5126,
      "count": 65532,
      "max": [
        0.9811540246009827,
        0.996071994304657
      ],
      "min": [
        0.06809400022029877,
        0.025275999680161476
      ],
      "type": "VEC2"
    },
    {
      "bufferView": 0,
      "byteOffset": 5801304,
      "componentType": 5125,
      "count": 358431,
      "type": "SCALAR"
    },
    {
      "bufferView": 2,
      "byteOffset": 8444136,
      "componentType": 5126,
      "count": 65532,
      "max": [
        13.72638988494873,
        11.848113059997559,
        6.092846870422363
      ],
      "min": [
        -0.3754200041294098,
        -8.316883087158203,
        0.30402299761772156
      ],
      "type": "VEC3"
    },
    {
      "bufferView": 2,
      "byteOffset": 9230520,
      "componentType": 5126,
      "count": 65532,
      "max": [
        0.999936580657959,
        0.9999121427536011,
        0.9999971389770508
      ],
      "min": [
        -0.9999887943267822,
        -0.9997501969337463,
        -0.9999802112579346
      ],
      "type": "VEC3"
    },
    {
      "bufferView": 3,
      "byteOffset": 5242560,
      "componentType": 5126,
      "count": 65532,
      "max": [
        0.999988317489624,
        0.9999790787696838,
        0.9999116659164429,
        1.0
      ],
      "min": [
        -0.999993622303009,
        -0.9999703764915466,
        -0.9998807311058044,
        -1.0
      ],
      "type": "VEC4"
    },
    {
      "bufferView": 1,
      "byteOffset": 2814712,
      "componentType": 5126,
      "count": 65532,
      "max": [
        0.9999780058860779,
        0.9980120062828064
      ],
      "min": [
        0.0007029999978840351,
        4.999999873689376e-05
      ],
      "type": "VEC2"
    },
    {
      "bufferView": 0,
      "byteOffset": 7235028,
      "componentType": 5125,
      "count": 348465,
      "type": "SCALAR"
    },
    {
      "bufferView": 2,
      "byteOffset": 10016904,
      "componentType": 5126,
      "count": 65532,
      "max": [
        14.050621032714844,
        11.774529457092285,
        4.8327250480651855
      ],
      "min": [
        -16.969810485839844,
        -10.078607559204102,
        0.03495199978351593
      ],
      "type": "VEC3"
    },
    {
      "bufferView": 2,
      "byteOffset": 10803288,
      "componentType": 5126,
      "count": 65532,
      "max": [
        0.999947190284729,
        0.9999403953552246,
        1.0
      ],
      "min": [
        -0.9999462366104126,
        -0.9999915361404419,
        -0.9999665021896362
      ],
      "type": "VEC3"
    },
    {
      "bufferView": 3,
      "byteOffset": 6291072,
      "componentType": 5126,
      "count": 65532,
      "max": [
        0.9999095797538757,
        0.9999982714653015,
        0.9999775290489197,
        1.0
      ],
      "min": [
        -0.9999821186065674,
        -0.9999923706054688,
        -0.999970555305481,
        -1.0
      ],
      "type": "VEC4"
    },
    {
      "bufferView": 1,
      "byteOffset": 3338968,
      "componentType": 5126,
      "count": 65532,
      "max": [
        1.0,
        0.9980310201644897
      ],
      "min": [
        0.00011700000322889537,
        2.2000000171829015e-05
      ],
      "type": "VEC2"
    },
    {
      "bufferView": 0,
      "byteOffset": 8628888,
      "componentType": 5125,
      "count": 280731,
      "type": "SCALAR"
    },
    {
      "bufferView": 2,
      "byteOffset": 11589672,
      "componentType": 5126,
      "count": 65532,
      "max": [
        13.139777183532715,
        11.616244316101074,
        6.398606777191162
      ],
      "min": [
        -11.996637344360352,
        -11.540916442871094,
        0.38096100091934204
      ],
      "type": "VEC3"
    },
    {
      "bufferView": 2,
      "byteOffset": 12376056,
      "componentType": 5126,
      "count": 65532,
      "max": [
        0.9999464750289917,
        0.9999715089797974,
        0.9999982118606567
      ],
      "min": [
        -0.9999887943267822,
        -0.9999856948852539,
        -0.9999802112579346
      ],
      "type": "VEC3"
    },
    {
      "bufferView": 3,
      "byteOffset": 7339584,
      "componentType": 5126,
      "count": 65532,
      "max": [
        0.9999663233757019,
        0.9999757409095764,
        0.9999781250953674,
        1.0
      ],
      "min": [
        -0.9999867081642151,
        -0.9999986290931702,
        -0.9999554753303528,
        -1.0
      ],
      "type": "VEC4"
    },
    {
      "bufferView": 1,
      "byteOffset": 3863224,
      "componentType": 5126,
      "count": 65532,
      "max": [
        0.9999849796295166,
        0.9980270266532898
      ],
      "min": [
        1.4000000192027073e-05,
        1.5999999959603883e-05
      ],
      "type": "VEC2"
    },
    {
      "bufferView": 0,
      "byteOffset": 9751812,
      "componentType": 5125,
      "count": 292206,
      "type": "SCALAR"
    },
    {
      "bufferView": 2,
      "byteOffset": 13162440,
      "componentType": 5126,
      "count": 45508,
      "max": [
        14.015501976013184,
        11.816096305847168,
        4.802227020263672
      ],
      "min": [
        -11.37274169921875,
        -6.577960014343262,
        0.03852200135588646
      ],
      "type": "VEC3"
    },
    {
      "bufferView": 2,
      "byteOffset": 13708536,
      "componentType": 5126,
      "count": 45508,
      "max": [
        0.999964714050293,
        0.9999680519104004,
        1.0
      ],
      "min": [
        -0.9996317028999329,
        -0.9998904466629028,
        -0.9985702633857727
      ],
      "type": "VEC3"
    },
    {
      "bufferView": 3,
      "byteOffset": 8388096,
      "componentType": 5126,
      "count": 45508,
      "max": [
        0.9999927878379822,
        0.9999974966049194,
        0.9999169111251831,
        1.0
      ],
      "min": [
        -0.9999960660934448,
        -0.9999866485595703,
        -0.9998277425765991,
        -1.0
      ],
      "type": "VEC4"
    },
    {
      "bufferView": 1,
      "byteOffset": 4387480,
      "componentType": 5126,
      "count": 45508,
      "max": [
        0.9998480081558228,
        0.9978799819946289
      ],
      "min": [
        7.999999979801942e-06,
        7.400000322377309e-05
      ],
      "type": "VEC2"
    },
    {
      "bufferView": 0,
      "byteOffset": 10920636,
      "componentType": 5125,
      "count": 138507,
      "type": "SCALAR"
    }
  ],
  "asset": {
    "extras": {
      "author": "Lassi Kaukonen (https://sketchfab.com/thesidekick)",
      "license": "CC-BY-4.0 (http://creativecommons.org/licenses/by/4.0/)",
      "source": "https://sketchfab.com/3d-models/rock-terrain-3-8d16b9d28b1841ada0c3c3595feccf52",
      "title": "Rock Terrain 3"
    },
    "generator": "Sketchfab-13.58.0",
    "version": "2.0"
  },
  "bufferViews": [
    {
      "buffer": 0,
      "byteLength": 11474664,
      "name": "floatBufferViews",
      "target": 34963
    },
    {
      "buffer": 0,
      "byteLength": 4751544,
      "byteOffset": 11474664,
      "byteStride": 8,
      "name": "floatBufferViews",
      "target": 34962
    },
    {
      "buffer": 0,
      "byteLength": 14254632,
      "byteOffset": 16226208,
      "byteStride": 12,
      "name": "floatBufferViews",
      "target": 34962
    },
    {
      "buffer": 0,
      "byteLength": 9116224,
      "byteOffset": 30480840,
      "byteStride": 16,
      "name": "floatBufferViews",
      "target": 34962
    }
  ],
  "buffers": [
    {
      "byteLength": 39597064,
      "uri": "scene.bin"
    }
  ],
  "images": [
    {
      "uri": "textures/Rock_Terrain3_baseColor.jpeg"
    },
    {
      "uri": "textures/Rock_Terrain3_metallicRoughness.png"
    },
    {
      "uri": "textures/Rock_Terrain3_normal.png"
    }
  ],
  "materials": [
    {
      "doubleSided": true,
      "name": "Base",
      "pbrMetallicRoughness": {
        "baseColorFactor": [
          0.024514,
          0.024514,
          0.024514,
          1.0
        ],
        "metallicFactor": 0.0
      }
    },
    {
      "doubleSided": true,
      "emissiveFactor": [
        0.8380977922980336,
        0.8380977922980336,
        0.8380977922980336
      ],
      "emissiveTexture": {
        "index": 0
      },
      "name": "Rock_Terrain3",
      "normalTexture": {
        "index": 2
      },
      "occlusionTexture": {
        "index": 1
      },
      "pbrMetallicRoughness": {
        "baseColorFactor": [
          0.3276200460801404,
          0.3276200460801404,
          0.3276200460801404,
          1.0
        ],
        "baseColorTexture": {
          "index": 0
        },
        "metallicFactor": 0.0,
        "metallicRoughnessTexture": {
          "index": 1
        }
      }
    }
  ],
  "meshes": [
    {
      "name": "Object_0",
      "primitives": [
        {
          "attributes": {
            "NORMAL": 1,
            "POSITION": 0,
            "TEXCOORD_0": 2
          },
          "indices": 3,
          "material": 0,
          "mode": 4
        }
      ]
    },
    {
      "name": "Object_1",
      "primitives": [
        {
          "attributes": {
            "NORMAL": 5,
            "POSITION": 4,
            "TEXCOORD_0": 6
          },
          "indices": 7,
          "material": 0,
          "mode": 4
        }
      ]
    },
    {
      "name": "Object_2",
      "primitives": [
        {
          "attributes": {
            "NORMAL": 9,
            "POSITION": 8,
            "TANGENT": 10,
            "TEXCOORD_0": 11
          },
          "indices": 12,
          "material": 1,
          "mode": 4
        }
      ]
    },
    {
      "name": "Object_3",
      "primitives": [
        {
          "attributes": {
            "NORMAL": 14,
            "POSITION": 13,
            "TANGENT": 15,
            "TEXCOORD_0": 16
          },
          "indices": 17,
          "material": 1,
          "mode": 4
        }
      ]
    },
    {
      "name": "Object_4",
      "primitives": [
        {
          "attributes": {
            "NORMAL": 19,
            "POSITION": 18,
            "TANGENT": 20,
            "TEXCOORD_0": 21
          },
          "indices": 22,
          "material": 1,
          "mode": 4
        }
      ]
    },
    {
      "name": "Object_5",
      "primitives": [
        {
          "attributes": {
            "NORMAL": 24,
            "POSITION": 23,
            "TANGENT": 25,
            "TEXCOORD_0": 26
          },
          "indices": 27,
          "material": 1,
          "mode": 4
        }
      ]
    },
    {
      "name": "Object_6",
      "primitives": [
        {
          "attributes": {
            "NORMAL": 29,
            "POSITION": 28,
            "TANGENT": 30,
            "TEXCOORD_0": 31
          },
          "indices": 32,
          "material": 1,
          "mode": 4
        }
      ]
    },
    {
      "name": "Object_7",
      "primitives": [
        {
          "attributes": {
            "NORMAL": 34,
            "POSITION": 33,
            "TANGENT": 35,
            "TEXCOORD_0": 36
          },
          "indices": 37,
          "material": 1,
          "mode": 4
        }
      ]
    },
    {
      "name": "Object_8",
      "primitives": [
        {
          "attributes": {
            "NORMAL": 39,
            "POSITION": 38,
            "TANGENT": 40,
            "TEXCOORD_0": 41
          },
          "indices": 42,
          "material": 1,
          "mode": 4
        }
      ]
    },
    {
      "name": "Object_9",
      "primitives": [
        {
          "attributes": {
            "NORMAL": 44,
            "POSITION": 43,
            "TANGENT": 45,
            "TEXCOORD_0": 46
          },
          "indices": 47,
          "material": 1,
          "mode": 4
        }
      ]
    },
    {
      "name": "Object_10",
      "primitives": [
        {
          "attributes": {
            "NORMAL": 49,
            "POSITION": 48,
            "TANGENT": 50,
            "TEXCOORD_0": 51
          },
          "indices": 52,
          "material": 1,
          "mode": 4
        }
      ]
    }
  ],
  "nodes": [
    {
      "children": [
        1
      ],
      "matrix": [
        1.0,
        0.0,
        0.0,
        0.0,
        0.0,
        2.220446049250313e-16,
        -1.0,
        0.0,
        0.0,
        1.0,
        2.220446049250313e-16,
        0.0,
        0.0,
        0.0,
        0.0,
        1.0
      ],
      "name": "Sketchfab_model"
    },
    {
      "children": [
        2,
        3,
        4,
        5,
        6,
        7,
        8,
        9,
        10,
        11,
        12
      ],
      "name": "Rock_Terrain3_SF.obj.cleaner.materialmerger.gles"
    },
    {
      "mesh": 0,
      "name": "Object_2"
    },
    {
      "mesh": 1,
      "name": "Object_3"
    },
    {
      "mesh": 2,
      "name": "Object_4"
    },
    {
      "mesh": 3,
      "name": "Object_5"
    },
    {
      "mesh": 4,
      "name": "Object_6"
    },
    {
      "mesh": 5,
      "name": "Object_7"
    },
    {
      "mesh": 6,
      "name": "Object_8"
    },
    {
      "mesh": 7,
      "name": "Object_9"
    },
    {
      "mesh": 8,
      "name": "Object_10"
    },
    {
      "mesh": 9,
      "name": "Object_11"
    },
    {
      "mesh": 10,
      "name": "Object_12"
    }
  ],
  "samplers": [
    {
      "magFilter": 9729,
      "minFilter": 9987,
      "wrapS": 10497,
      "wrapT": 10497
    }
  ],
  "scene": 0,
  "scenes": [
    {
      "name": "Sketchfab_Scene",
      "nodes": [
        0
      ]
    }
  ],
  "textures": [
    {
      "sampler": 0,
      "source": 0
    },
    {
      "sampler": 0,
      "source": 1
    },
    {
      "sampler": 0,
      "source": 2
    }
  ]
}
